<svg xmlns="http://www.w3.org/2000/svg" xmlns:xlink="http://www.w3.org/1999/xlink" width="1597" height="2411.98" viewBox="0 0 1597 2411.98"><defs><style>.cls-1{fill:url(#Degradado_sin_nombre_12);}.cls-2{fill:url(#Degradado_sin_nombre_12-2);}.cls-3{fill:url(#Degradado_sin_nombre_12-3);}.cls-4{fill:url(#Degradado_sin_nombre_12-4);}.cls-5{fill:url(#Degradado_sin_nombre_12-5);}.cls-6{fill:url(#Degradado_sin_nombre_12-6);}.cls-7{fill:url(#Degradado_sin_nombre_12-7);}.cls-8{fill:url(#Degradado_sin_nombre_12-8);}.cls-9{fill:url(#Degradado_sin_nombre_12-9);}.cls-10{fill:url(#Degradado_sin_nombre_12-10);}.cls-11{fill:url(#Degradado_sin_nombre_12-11);}.cls-12{fill:url(#Degradado_sin_nombre_12-12);}.cls-13{fill:url(#Degradado_sin_nombre_12-13);}.cls-14{fill:url(#Degradado_sin_nombre_12-14);}.cls-15{fill:url(#Degradado_sin_nombre_12-15);}.cls-16{fill:url(#Degradado_sin_nombre_12-16);}.cls-17{fill:url(#Degradado_sin_nombre_12-17);}.cls-18{fill:url(#Degradado_sin_nombre_12-18);}.cls-19{fill:url(#Degradado_sin_nombre_12-19);}.cls-20{fill:url(#Degradado_sin_nombre_12-20);}.cls-21{fill:url(#Degradado_sin_nombre_12-21);}.cls-22{fill:url(#Degradado_sin_nombre_12-22);}.cls-23{fill:url(#Degradado_sin_nombre_12-23);}.cls-24{fill:url(#Degradado_sin_nombre_12-24);}.cls-25{fill:url(#Degradado_sin_nombre_12-25);}.cls-26{fill:url(#Degradado_sin_nombre_12-26);}.cls-27{fill:url(#Degradado_sin_nombre_12-27);}.cls-28{fill:url(#Degradado_sin_nombre_12-28);}.cls-29{fill:url(#Degradado_sin_nombre_12-29);}.cls-30{fill:url(#Degradado_sin_nombre_12-30);}.cls-31{fill:url(#Degradado_sin_nombre_12-31);}.cls-32{fill:url(#Degradado_sin_nombre_12-32);}.cls-33,.cls-34{fill-rule:evenodd;}.cls-33{fill:url(#Degradado_sin_nombre_12-33);}.cls-34{fill:url(#Degradado_sin_nombre_12-34);}</style><linearGradient id="Degradado_sin_nombre_12" y1="264.6" x2="1597" y2="264.6" gradientUnits="userSpaceOnUse"><stop offset="0" stop-color="#2d0a7c"/><stop offset="0.11" stop-color="#330c78"/><stop offset="0.26" stop-color="#43136e"/><stop offset="0.42" stop-color="#5e1e5d"/><stop offset="0.6" stop-color="#842d46"/><stop offset="0.79" stop-color="#b44127"/><stop offset="0.98" stop-color="#ee5903"/><stop offset="1" stop-color="#f35b00"/></linearGradient><linearGradient id="Degradado_sin_nombre_12-2" y1="242.21" x2="1597" y2="242.21" xlink:href="#Degradado_sin_nombre_12"/><linearGradient id="Degradado_sin_nombre_12-3" y1="213.31" x2="1597" y2="213.31" xlink:href="#Degradado_sin_nombre_12"/><linearGradient id="Degradado_sin_nombre_12-4" y1="329.68" x2="1597" y2="329.68" xlink:href="#Degradado_sin_nombre_12"/><linearGradient id="Degradado_sin_nombre_12-5" y1="267.29" x2="1597" y2="267.29" xlink:href="#Degradado_sin_nombre_12"/><linearGradient id="Degradado_sin_nombre_12-6" y1="142.74" x2="1597" y2="142.74" xlink:href="#Degradado_sin_nombre_12"/><linearGradient id="Degradado_sin_nombre_12-7" y1="184.47" x2="1597" y2="184.47" xlink:href="#Degradado_sin_nombre_12"/><linearGradient id="Degradado_sin_nombre_12-8" y1="136.1" x2="1597" y2="136.1" xlink:href="#Degradado_sin_nombre_12"/><linearGradient id="Degradado_sin_nombre_12-9" y1="224.12" x2="1597" y2="224.12" xlink:href="#Degradado_sin_nombre_12"/><linearGradient id="Degradado_sin_nombre_12-10" y1="440.17" x2="1597" y2="440.17" xlink:href="#Degradado_sin_nombre_12"/><linearGradient id="Degradado_sin_nombre_12-11" y1="451.72" x2="1597" y2="451.72" xlink:href="#Degradado_sin_nombre_12"/><linearGradient id="Degradado_sin_nombre_12-12" y1="140.95" x2="1597" y2="140.95" xlink:href="#Degradado_sin_nombre_12"/><linearGradient id="Degradado_sin_nombre_12-13" y1="529.98" x2="1597" y2="529.98" xlink:href="#Degradado_sin_nombre_12"/><linearGradient id="Degradado_sin_nombre_12-14" y1="422.88" x2="1597" y2="422.88" xlink:href="#Degradado_sin_nombre_12"/><linearGradient id="Degradado_sin_nombre_12-15" y1="341.78" x2="1597" y2="341.78" xlink:href="#Degradado_sin_nombre_12"/><linearGradient id="Degradado_sin_nombre_12-16" y1="567.21" x2="1597" y2="567.21" xlink:href="#Degradado_sin_nombre_12"/><linearGradient id="Degradado_sin_nombre_12-17" y1="822.37" x2="1597" y2="822.37" xlink:href="#Degradado_sin_nombre_12"/><linearGradient id="Degradado_sin_nombre_12-18" y1="896.28" x2="1597" y2="896.28" xlink:href="#Degradado_sin_nombre_12"/><linearGradient id="Degradado_sin_nombre_12-19" y1="1218.83" x2="1597" y2="1218.83" xlink:href="#Degradado_sin_nombre_12"/><linearGradient id="Degradado_sin_nombre_12-20" y1="885.77" x2="1597" y2="885.77" xlink:href="#Degradado_sin_nombre_12"/><linearGradient id="Degradado_sin_nombre_12-21" y1="376.11" x2="1597" y2="376.11" xlink:href="#Degradado_sin_nombre_12"/><linearGradient id="Degradado_sin_nombre_12-22" y1="899.79" x2="1597" y2="899.79" xlink:href="#Degradado_sin_nombre_12"/><linearGradient id="Degradado_sin_nombre_12-23" y1="311.93" x2="1597" y2="311.93" xlink:href="#Degradado_sin_nombre_12"/><linearGradient id="Degradado_sin_nombre_12-24" y1="517.37" x2="1597" y2="517.37" xlink:href="#Degradado_sin_nombre_12"/><linearGradient id="Degradado_sin_nombre_12-25" y1="267.55" x2="1597" y2="267.55" xlink:href="#Degradado_sin_nombre_12"/><linearGradient id="Degradado_sin_nombre_12-26" y1="234.19" x2="1597" y2="234.19" xlink:href="#Degradado_sin_nombre_12"/><linearGradient id="Degradado_sin_nombre_12-27" y1="192.68" x2="1597" y2="192.68" xlink:href="#Degradado_sin_nombre_12"/><linearGradient id="Degradado_sin_nombre_12-28" y1="361.15" x2="1597" y2="361.15" xlink:href="#Degradado_sin_nombre_12"/><linearGradient id="Degradado_sin_nombre_12-29" y1="1286" x2="1597" y2="1286" xlink:href="#Degradado_sin_nombre_12"/><linearGradient id="Degradado_sin_nombre_12-30" y1="1274.96" x2="1597" y2="1274.96" xlink:href="#Degradado_sin_nombre_12"/><linearGradient id="Degradado_sin_nombre_12-31" y1="1187.66" x2="1597" y2="1187.66" xlink:href="#Degradado_sin_nombre_12"/><linearGradient id="Degradado_sin_nombre_12-32" y1="1242.76" x2="1597" y2="1242.76" xlink:href="#Degradado_sin_nombre_12"/><linearGradient id="Degradado_sin_nombre_12-33" x1="797.33" y1="1804.26" x2="1318.69" y2="1804.26" xlink:href="#Degradado_sin_nombre_12"/><linearGradient id="Degradado_sin_nombre_12-34" x1="956.62" y1="2360.95" x2="1024.57" y2="2360.95" xlink:href="#Degradado_sin_nombre_12"/></defs><title>map-bg</title><g id="Capa_2" data-name="Capa 2"><g id="Capa_1-2" data-name="Capa 1"><path class="cls-1" d="M729.51,288c18.17,0-5.35-16.89-19.16-21.39a18.82,18.82,0,0,0-5.49-1.09c-11.09,0-13.56-24.09-30.82-24.09l-.39,0c-20.57-2.68-21.67,33.79-3.3,35.38,1.1.1,2.19.22,3.3.37,11.74,1.57,24,5.92,36.7,8.62A93,93,0,0,0,729.51,288Z"/><path class="cls-2" d="M623.51,233.38c-1.1,0-2.12,0-3.07.11-16.55,1.28-11.92,13.14,0,16.61a24.6,24.6,0,0,0,6.77,1C644.46,251.05,640.77,233.38,623.51,233.38Z"/><path class="cls-3" d="M771.09,223.24c8.5-2.72,6.72-14.25,0-18.69a10.42,10.42,0,0,0-7.06-1.68c-17.26,0-17.26,19.27,1.23,20.88A14.83,14.83,0,0,0,771.09,223.24Z"/><path class="cls-4" d="M733.21,347.4c3.7-9.63,23.42-12.85,28.35-28.9S748,305.65,733.21,305.65c-21,1.6-19.72,19.27-14.79,35.33S729.51,357,733.21,347.4Z"/><path class="cls-5" d="M789.39,287.31c11.16,1,26.56,4.59,41.73,6,9.63.91,19.15,1,27.44-1a34.34,34.34,0,0,0,14.76-7.18c8.48-7.37-.06-13.55-14.76-18a182.79,182.79,0,0,0-27.44-5.69c-14.37-2-29-2.73-38.44-2-10,.76-16.6-2.29-21.59-6.15-9-6.95-12.73-16.53-21.2-11C728.49,238,740,268,751.53,285.16,759,296.23,763,293,771.09,289.91A38.36,38.36,0,0,1,789.39,287.31Z"/><path class="cls-6" d="M733.43,163c-3,23.35,15.71,36.1,37.66,23.84a53,53,0,0,0,6.77-4.54c23.89-18.67,7.71-53.41-6.77-57.58a9.64,9.64,0,0,0-1.45-.31c-14.81-2.15-11.52-34.31-42.79-30C700.52,92.2,736.72,137.22,733.43,163Z"/><path class="cls-7" d="M638,205.83a107.59,107.59,0,0,0,14.2.4c7.24-.22,14.11-.87,21.47-.69a80.39,80.39,0,0,1,25.23,4.58c5,1.75,8.83,1.27,11.47-.61,6.29-4.46,6-16.86,0-25.82-3.81-5.7-9.91-10-18.06-10a81.45,81.45,0,0,1-18.64-2.32c-7.24-1.68-14.24-4-21.47-6.28-9.81-3-20-5.81-31.74-6.32-1.26-.06-2.55-.09-3.85-.09-12.65-6-7.62,18.36,3.85,34.32C625.39,199.86,631.53,205.19,638,205.83Z"/><path class="cls-8" d="M693.94,150.09c18.1,0,6.58-30-11.52-27.88-4.11,0-7,.89-8.77,2.35-3.66,2.94-3.07,8.2,0,13.2C677.58,144.15,685.58,150.09,693.94,150.09Z"/><path class="cls-9" d="M723.35,202.87c-4.4,0-9.45,4.18-13,10.83a41.4,41.4,0,0,0-4.26,24.5c.44,3.45,2,5.45,4.26,6.43,10.23,4.47,34-12.85,22.86-12.85C719.65,231.78,736.91,202.87,723.35,202.87Z"/><path class="cls-10" d="M1014.49,494.53a42,42,0,0,1,12.17,2.41l1.35.49c19.31,7.19,14.34-23.29-1.35-39.65a34.55,34.55,0,0,0-10.17-7.53,17.49,17.49,0,0,1-2-1.09c-20.48-12.83-12-63.49-37.5-71.8-5.17-1.69-12.43-4-20.55-6.78-21.4-7.23-48.77-17.25-59.57-25.32-5.68-4.24-6.77-7.94,0-10.4l1.13-.39c10.76-3.29,7.88-8.81-1.13-14.23s-24.41-10.83-38.31-13.72c-8.17-1.7-15.83-2.55-21.45-2.06-2.07.1-4.06.24-6,.44-39.49,3.89-50,26.29-50,46.73,0,20,28.74,45.68,50,49a28.52,28.52,0,0,0,4.35.35c6.38,0,14.39.2,23.09,1,12.25,1.19,25.88,3.65,38.31,8.69a72.61,72.61,0,0,1,22.52,13.87c23,21.44,23,21.44,8.23,36.45-14.36,14.55-8.61,39.18-30.75,42.62-.69.11-1.41.19-2.16.26-22.23,1.93-19.1,26.45,2.16,32.88a35.54,35.54,0,0,0,7.71,1.42c13.94,1.07,33.6,8,51.86,15.73s35.34,16.42,43.59,20.72c5.41,2.82,10.63,1.24,14.46-3.05,6.86-7.71,9.21-24.18,0-39.77a50.4,50.4,0,0,0-4.59-6.49C993.07,505.05,999.68,494.1,1014.49,494.53Z"/><path class="cls-11" d="M896.87,465.28a21.55,21.55,0,0,0,6.44-3.86c14.93-12.51,5.86-25-6.44-24a18.56,18.56,0,0,0-5.89,1.51C876,451.51,883.35,470.15,896.87,465.28Z"/><path class="cls-12" d="M771.09,98.73a90.42,90.42,0,0,0,8.42,4.19c21.45,9.31,24.27,5.68,51.61,4.56,4.13-.17,8.82-.28,14.22-.28a79.81,79.81,0,0,1,13.22,1c17.55,3,15.67,12.51,0,19a90.35,90.35,0,0,1-24.74,5.74c-1,.1-1.84.23-2.7.36C794.79,139,838.3,176,819,184.39c-19.75,8.58-31.27,27.87-34.56,53.6-2.52,19.68,23.83,14.28,46.67,10.65,7-1.12,13.73-2.07,19.16-2.07a18.93,18.93,0,0,0,8.28-2c16.63-8,27.7-37.69,38.31-42.41a6.85,6.85,0,0,1,2.77-.64c13.17,0,1.65-57.89,19.75-55.74,9.25,1.09,23.64-3.41,37.05-10.92,12.85-7.21,24.79-17.18,30.43-27.68,7.15-13.31,15.57-23.31,27.62-32.06a125.81,125.81,0,0,1,12.17-7.76c4.41-2.48,9.23-4.92,14.51-7.34,13.51-6.21,3.24-12.42-14.51-16.7-3.77-.91-7.88-1.74-12.17-2.45-17.36-2.9-37.69-4.08-50.66-2.3-2.7.37-5.15.61-7.39.75C932.64,40.75,931.93,30,907.87,30a65.11,65.11,0,0,0-11-.11c-12.59.88-25.47,5-38.31,10.29-9.21,3.8-18.39,8.2-27.44,12.47-19.92,9.39-39.19,18.08-56.55,18.08-1.21,0-2.38,0-3.48.06C740.53,71.92,751.7,87.84,771.09,98.73Z"/><path class="cls-13" d="M858.56,532.61c-5.34-10-16.72-22.75-27.44-27.17a19,19,0,0,0-7.17-1.58c-18.11,4.29-29.63,17.15-19.75,42.88,6.3,16.41,15.27,7.53,26.92,1.17,6.62-3.62,14.1-6.42,22.45-3.31a12.36,12.36,0,0,0,5,1C863.08,545.22,862.3,539.61,858.56,532.61Z"/><path class="cls-14" d="M673.65,410.76c-5.68,3.51-5.28,10.37,0,16.24,5.05,5.62,14.57,10.33,27.51,10.33a28.24,28.24,0,0,0,9.19-1.22c7.49-2.61,5.75-9,0-15-6.3-6.59-17.4-12.65-26.44-12.65C679.39,408.43,676,409.31,673.65,410.76Z"/><path class="cls-15" d="M699.93,347.4C690.07,349,698.7,304,680.21,304a30.79,30.79,0,0,0-6.56,2.18c-9.86,4.64-13,13.59-5.76,20.3,8.11,7.56-1.23,13.7-15.71,14.39-.91,0-1.84.07-2.78.07-9,0-5.54,12.25,2.78,22.94,5.71,7.35,13.72,14,21.47,15.34a16.44,16.44,0,0,0,2.86.26C696.23,379.52,709.79,345.79,699.93,347.4Z"/><path class="cls-16" d="M841.68,557.77c-6.41,1.67-9.57,4.1-10.56,6.7a5.65,5.65,0,0,0,0,3.95c2.12,6.14,13.17,11.56,19.18,8.62C860.17,572.22,862.63,551.35,841.68,557.77Z"/><path class="cls-17" d="M1095.59,784.2c-1.38-.14-2.55-.28-3.54-.4-10.52-1.25-1-.18-10,27.7-7,21.67-2.19,28,10,35,5,2.85,11.19,5.83,18.33,10,24.65,14.46,29.58-6.42,22.19-27.29S1121.47,782.59,1095.59,784.2Z"/><path class="cls-18" d="M1095.48,774c19.65,0,5.2-18-3.43-33.89-3.65-6.74-6.27-13.1-4.8-17.57,4.94-15-19.75-21.44-32.91-38.59-12.38-16.12-10.21-62.56-27.68-69.85a12.29,12.29,0,0,0-3.59-.9c-4-.4-6.68,0-8.58,1-8.4,4.29-1,19.49-14.46,24.74-16.45,6.43-24.68-4.29-24.68-23.59,0-8.11-7.85-19.63-18.91-30-15.25-14.21-36.6-26.14-51.86-23.65a31.87,31.87,0,0,0-7.71,2c-24.34,9.66-19.84,47.82-15.32,75.24,4.93,30,16.45,51.45,3.29,51.45S871.67,716.12,870,756.86c-.83,20.57-6.27,17.63-11.46,7.19-5.09-10.22-9.93-27.66-9.93-37.21,0-9-6.85-15.71-17.51-21.81C819,698.11,802,691.94,784.45,684c-5-2.26-9.4-4.33-13.36-6.27-22.34-10.92-29.68-17.75-31.08-32.32-1.64-17.15-14.81-30-6.58-36.45s4.94-45,21.39-47.17c12.86-1.68,9.65-13.82,16.27-19.06,1.85-1.46,4.46-2.38,8.42-2.38,18.1,0,23-40.74,23-40.74a108.6,108.6,0,0,1,28.57-11.37,58.74,58.74,0,0,1,12.57-1.49c19.75,0,9.88-68.61-8.22-70.76a37,37,0,0,0-4.35-.27c-15.08,0-22,10.47-22,28.15,0,19.29-11.52,23.58-13.16,6.42s-13.17-25.72-24.69-15l-.19.17c-11.19,10.06.09-30.18-17.91-28.05s-4.94-21.44-13.17-38.59-11.52-2.14-24.68,6.43a19.1,19.1,0,0,0-5,4.67c-5.79,7.8-4.51,18.68,0,23.31a7.1,7.1,0,0,0,3.33,2c8.23,2.14,9.88,17.15,19.75,30,7.43,9.67-1.9,13.28-23.08,14.48-7,.39-15.25.52-24.64.52a94.26,94.26,0,0,1-12.06-.73,75.31,75.31,0,0,1-21.47-6c-11.14-4.89-19.2-10.88-31.74-12.26a50.42,50.42,0,0,0-5.5-.3c-26.32,0-23,38.59-42.78,30-14.49-6.29-26.31-2.2-33.54-7.19-2.63-1.81-4.64-4.82-6-10-3.49-13.66-11.11-13.36-22.84-12a139.11,139.11,0,0,1-16.66,1.29c-21.39,0-11.52-23.58-39.49-23.58s-14.82,8.58-39.5-12.87-16.45,8.58-49.37,8.58-39.5,8.58-39.5,27.87-46.08-30-93.8-34.3-98.74-23.59-128.36-23.59-44.43,40.74-79,47.17,3.29,19.3,13.16,42.88S43.89,486.71,11,491s16.46,32.15,39.5,32.15-1.65,21.44-18.11,34.31-23,57.89,3.3,60,13.16,21.45,46.08,21.45S85,671.1,63.64,692.54,43.89,741.85,55.41,729s41.14-45,56-51.46,24.69-40.74,37.86-51.46,23,21.44,31.27,4.29,24.68-2.15,39.49-6.43,46.08,4.28,59.24,8.57,28,21.44,47.73,19.3,21.39,40.74,34.56,55.75,28,12.86,24.69,34.3,23,51.46,47.72,64.32,34.56,51.46,14.81,38.59-21.4-8.57-14.81,15,9.87,38.6,0,45-9.88,68.61,3.29,98.63,59.25,60,65.83,87.9a128.88,128.88,0,0,0,6.78,20.63c7.53,17.92,18.1,33.36,27.78,52.27l1,2c12.66,24.93,22.32,47.2,33.54,43,11.52-4.29,0-27.88-9.88-47.17s34.56,34.3,47.73,47.17c4.63,4.52,7.62,14.35,10.43,25.28,5.17,20.16,9.68,44.08,22.48,45.47a38.67,38.67,0,0,1,9.26,2.38c6.58,2.47,13.76,6.46,21.47,10.67,11.15,6.08,23.43,12.58,36.7,15.52a66.87,66.87,0,0,0,9.91,1.45c21.52,1.48,35.24,18.17,50.83,28.45,7.06,4.66,14.51,8,23.23,8a22.57,22.57,0,0,1,3,.21c24,3.27,26.57,45.36,33.79,63.81.34.87.69,1.69,1,2.45,3.8,7.91,15,8.39,26.39,8.44,12.86.07,26.08-.38,29.57,8.71l.59,1.54,8.15-16.44,14.1-28.42c-4.38.89-9.21.65-14.1.14-9.76-1-19.74-3.17-26.85.3a15.3,15.3,0,0,1-11.46.73c-10-3-20.31-14.58-27.44-29.5l-.59-1.25c-9.88-21.44,6.58-45-18.1-45a9.76,9.76,0,0,1-7.94-3.75c-11.6-15.78.57-69.7.57-89.57,0-13.7-17.63,1.22-34,18.83-7.36,7.92-14.45,16.39-19.56,23-12.56,16.36-28-1-41.18-18.71-4.09-5.5-8-11-11.47-15.6-12.14-15.81-1.07-59,11.47-83.48a67.25,67.25,0,0,1,8.27-13c14.75-17.09,36-2.27,52.47-10.62l.19-.1c14.47-7.54,40.37-16.73,59.84,4.44a59.79,59.79,0,0,1,7.64,10.56c8.78,15.26,15.28,24.57,19.8,27.58,5.64,3.75,8.17-2.33,8.17-19,0-30-6.58-47.17,1.65-64.32,5-10.48,18.65-19.36,28.49-29.08,6.27-6.19,11-12.73,11-20.24,0-19.29,9.88-72.89,28-72.89,10.93,0,15.86-9.38,20.59-20.12,3.1-7,6.11-14.67,10.68-20.62,11.1-14.46,29.83-15,47.37-41.84.67-1,1.34-2.08,2-3.19,9.11-15.1,5.71-30.75-2-42.57-7.62-11.67-19.45-19.6-27.62-19.6-12.72,0,10.9-16.63,27.62-19.26,4.92-.77,9.25-.34,11.87,2.1l.3.29c11.28,10.66,14.57,23.17,21.09,8.29,6.31-14.38,18.67-24.82,44.3-25.67C1093.17,774,1094.31,774,1095.48,774Z"/><path class="cls-19" d="M858.56,1207.42a18.85,18.85,0,0,0-5.06-.71c-18.16-3-10.11,16.85,5.06,22.87a23.79,23.79,0,0,0,6,1.55C881.49,1233.13,873.43,1211.65,858.56,1207.42Z"/><path class="cls-20" d="M1032.73,872.52a10,10,0,0,0-6.07,3.69c-2.94,3.93-2.56,10,0,15,2.44,4.77,6.85,8.57,12.23,8.57C1052.45,899.82,1048.75,866.1,1032.73,872.52Z"/><path class="cls-21" d="M1581.6,360.85c-23.54-2.56-11.77,30.66,5.88,30.66S1595.33,360.85,1581.6,360.85Z"/><path class="cls-22" d="M1014.49,889.4a7.89,7.89,0,0,0-2.36.58c-10.12,2.2-6.22,17.59,2.36,19.93a8.48,8.48,0,0,0,2.21.3C1026.05,910.21,1024.33,888.59,1014.49,889.4Z"/><path class="cls-23" d="M1492.09,83.62a62.63,62.63,0,0,1-18.85,8.66c-10.48,2.57-20.65.72-28.87-8.66-13.17-15-32.92,8.58-44.44-15s-18.1,25.73-51,0,37.85-23.58,90.52-15S1388.41,0,1330.81,0c-47.72,0-47.72,30-85.57,27.87s-1.65,38.6-23,38.6,14.81,42.88-34.56,4.28-6.58,17.16-26.33,23.59-21.39-25.73-59.25-30a47.1,47.1,0,0,0-10-.14c-26.7,2.75-23.86,32.3-62.4,32.3-1,0-2,0-3,.06a58.21,58.21,0,0,0-12.17,1.58c-25.17,6.35-17.31,29.29-4.59,34.81a16.33,16.33,0,0,1,4.59,3.07c7.68,7.23,10.13,22.05,0,30.07-4.17,3.31-10.46,5.46-19.39,5.46-23.7,0-32.7,0-38.66,9-2.74,4.11-4.83,10.12-7.42,18.88-2.88,9.73.67,13.71,7.42,14.86,12.57,2.15,36.25-5.54,50.17-4.14,21.4,2.14-31.26,23.59-9.87,40.74a38.5,38.5,0,0,0,17.75,7.62,79.7,79.7,0,0,0,12.17,1.08c17.65.34,37.57-3.22,55.66,2a30.35,30.35,0,0,1,9.73,4.75c18.55,13.72,15.21,45.39,28.12,51,14.8,6.44,24.68,0,3.29,21.44s-3.29,32.16,13.16,25.74,24.69,23.58,1.65,30,3.29,27.87,19.75,12.86-31.27,34.31-16.46,45-8.23,42.88,6.58,72.9,23,79.33,60.89,96.48,46.08-77.19,46.08-102.91,49.37-23.59,62.53-51.46,57.61-27.87,85.58-45,29.63-32.16,3.29-27.87-18.1-38.59,8.23-38.59-24.68-47.17-1.64-47.17,18.1-15,34.56-36.45-6.59-40.74,14.81-40.74a17.5,17.5,0,0,0,10.77-3.56c11-8.33,12.75-29.41,0-42.22a30.18,30.18,0,0,0-4.19-3.53c-14.21-10-1.57-19.93,4.19-30.53,2.72-5,3.91-10.15,0-15.5q-.4-.57-.9-1.14c-4.54-5.26-3.51-8.9.9-11.55,10-6,37.3-6.92,56.7-9.89C1557.92,109.35,1508.55,72.9,1492.09,83.62Z"/><path class="cls-24" d="M1487.46,491.16c-5.6-1-9.9-1.24-14.22-1.79-6.27-.81-12.59-2.38-23-8.43-17.65-10.22-35.3,33.22-7.84,61.32,10.34,10.58,21,13.92,30.89,12.88,16.49-1.72,31.15-15.46,39.71-28.21C1526.68,506.49,1513,480.94,1487.46,491.16Z"/><path class="cls-25" d="M509.82,252c-5.95,7.43-7.47,19.18-5.87,29.59.7,4.55,3,6.78,5.87,7.9,7.3,2.81,18.43-1.5,17.55,6.55-.65,5.94,4.56,5.15,11.25,1.42A89.54,89.54,0,0,0,557,283.17c11.09-11.25,24.66-3.22,50.54-1.61a56.62,56.62,0,0,0,13-.53c13.75-2.34,14.89-10.08,0-10.67-.59,0-1.22,0-1.86,0-21,0-21-35.33-37-35.33-13.57-1.61-11.1,4.81-16,22.48-3.53,12.63-14.62-.19-27-7.93-4.92-3.09-10-5.37-15-4.92A19.47,19.47,0,0,0,509.82,252Z"/><path class="cls-26" d="M449.71,260.68c16,0,11.1-19.27,32.05-19.27,9.38,0,21-6.75,28.06-14.22,7.32-7.72,9.81-16.19,0-18.74a28.69,28.69,0,0,0-7.1-.76c-28.35,1.61-29.58,24.09-54.24,25.69S433.69,260.68,449.71,260.68Z"/><path class="cls-27" d="M562.62,213.19c23.5,0,10.45-40.83-7.83-40.83-8.83-1-13.92,1.86-16.17,6.41-1.93,3.92-1.75,9.12,0,14.29C542,203.19,551.44,213.19,562.62,213.19Z"/><path class="cls-28" d="M486.58,379.5c1.91,12.43,15.42,14.77,23.24,16.22,5.68,1,8.37,1.62,1.45,5.22-.52.27-1,.54-1.45.79-6.83,3.94-5.55,6.53,0,9.91s15.69,7.7,26.13,15a22.09,22.09,0,0,0,2.67,1.59c21.11,10.66,56.65-14.6,81.82-14.56.92,0,1.84,0,2.73.11a61.31,61.31,0,0,0,29-4.54c8.4-3.74,11.19-8.33,3.91-8.33a14.7,14.7,0,0,1-3.91-.55c-11.8-3.28-24.24-21-31.74-48.78-.19-.7-.38-1.41-.56-2.12-8.23-32.17-32.91-19.3-56-19.3-9.07,0-17.37-3.66-25.31-8.09-9.91-5.52-19.25-12.26-28.8-14.62a27.9,27.9,0,0,0-6.78-.88c-19.75,0-31.27-17.15-54.31-15-28,0-39.49,45-26.33,66.47S483.29,358.06,486.58,379.5Z"/><path class="cls-29" d="M998.35,1278.86c-24.71-2.22-11.93,13.32,7.66,14.43,4.33.25,7-.32,8.48-1.35,1.88-1.35,1.62-3.49,0-5.65C1011.73,1282.61,1005,1278.86,998.35,1278.86Z"/><path class="cls-30" d="M961.71,1260a50.23,50.23,0,0,0-5.27.26c-26.06,2.75-13.61,26.46,0,29.41a13.16,13.16,0,0,0,2.71.3C974.49,1290,976.19,1258.88,961.71,1260Z"/><path class="cls-31" d="M896.87,1173a17.69,17.69,0,0,0-7.58-1.84c-15.34,3.33-17.9,24.43-8.53,31.09,5.24,3.72,10.22-.19,16.11-2.42,4.66-1.76,9.88-2.48,16.27,2.42C925.79,1212,913.75,1181,896.87,1173Z"/><path class="cls-32" d="M896.87,1233.4a21.7,21.7,0,0,0-3.33-.05c-13.35,0-7.87,11.59,3.33,16.6a25.3,25.3,0,0,0,10.31,2.27C923.09,1252.22,912.26,1234.8,896.87,1233.4Z"/><path class="cls-33" d="M1289.67,1582.33c-29.62-23.59-42.79-21.44-72.41-34.31s-57.6-12.86-57.6-40.74,3.3-55.74-18.1-55.74-44.43-30-72.41-51.46-51-15-67.48-15-42.78,8.58-49.36-12.86-19.75,0-32.92,10.72-36.2-2.15-49.37,4.29-29.62-8.58-39.49-30,6.58-45-18.1-45a9.83,9.83,0,0,1-8.35-4.29c-2.45,11.06-4.28,24.19-6.75,38.81,25.1,3.42,26.92,49.74,34.84,66.26,8.23,17.15,49.38,0,56,17.15s18.1,42.88,0,49.31-9.88,38.59-28,49.31-16.46,55.75-6.58,81.48,46.07,60,46.07,79.33-3.29,42.88,14.82,42.88,32.91,36.45,44.43,49.32,0,40.74,9.87,64.32-21.39,30-21.39,57.89,8.23,77.19-6.58,92.2-18.11,45-8.23,83.62,11.52,55.74,1.64,77.18-18.09,23.58-11.52,40.74,19.75,77.18,37.86,96.48S977,2283.44,977,2283.44s24.68-60,32.91-66.46-19.74-60-4.93-60,18.1-30,18.1-45-1.65-32.15,9.87-17.15,34.56-30,52.67-40.73,14.81-25.73-1.65-55.75,24.69,0,36.21,6.43,36.2-34.3,37.85-70.75,21.39-27.88,21.39-47.18,19.75-40.73,41.14-45,41.14-42.88,42.79-83.62,32.91-83.61,47.73-111.49S1319.29,1605.91,1289.67,1582.33Z"/><path class="cls-34" d="M996.62,2376c-8-5.95-18.86-29-19-39,0-1.45-4.21-2.62-5-3-5.7-2.72,13.85-6.72,5.82-15.74C964.86,2303,961.62,2302,957.82,2374c-1.33,25.26-4.2,31.94,9.22,35.65,16,4.4,6.58,1.29,21.17.46C1024.8,2408.05,1043.62,2411,996.62,2376Z"/></g></g></svg>